<?xml version="1.0" encoding="UTF-8"?>
<!DOCTYPE svg PUBLIC "-//W3C//DTD SVG 1.1//EN" "http://www.w3.org/Graphics/SVG/1.1/DTD/svg11.dtd">
<!-- Creator: CorelDRAW 2021 (64-Bit) -->
<svg xmlns="http://www.w3.org/2000/svg" xml:space="preserve" width="32.8015mm" height="4.4958mm" version="1.1" style="shape-rendering:geometricPrecision; text-rendering:geometricPrecision; image-rendering:optimizeQuality; fill-rule:evenodd; clip-rule:evenodd"
viewBox="0 0 870.91 119.37"
 xmlns:xlink="http://www.w3.org/1999/xlink"
 xmlns:xodm="http://www.corel.com/coreldraw/odm/2003">
 <defs>
  <style type="text/css">
   <![CDATA[
    .fil0 {fill:#E6E6E6;fill-rule:nonzero}
   ]]>
  </style>
 </defs>
 <g id="Capa_x0020_1">
  <metadata id="CorelCorpID_0Corel-Layer"/>
  <g id="_2397680369200">
   <polygon class="fil0" points="785.1,117.09 785.1,102.26 794.54,102.26 794.54,17.11 785.1,17.11 785.1,2.28 814.77,2.28 845.29,80.84 845.29,17.11 836.21,17.11 836.21,2.28 870.91,2.28 870.91,17.11 861.47,17.11 861.47,117.74 844.47,117.74 811.06,32.43 811.06,102.26 819.97,102.26 819.97,117.09 "/>
   <polygon class="fil0" points="700.8,117.09 700.8,102.26 710.24,102.26 710.24,17.11 700.8,17.11 700.8,2.28 775.66,2.28 775.66,34.65 759.3,34.65 759.3,16.86 730.14,16.86 730.14,48.13 754.75,48.13 754.75,64.66 730.14,64.66 730.14,102.42 759.3,102.42 759.3,81.85 775.66,81.85 775.66,117.09 "/>
   <polygon class="fil0" points="589.83,2.28 625.38,2.28 641.11,64.29 657.58,2.28 692.34,2.28 692.34,17.11 682.9,17.11 682.9,102.26 692.34,102.26 692.34,117.09 655.59,117.09 655.59,102.26 664.52,102.26 665.76,18.43 643.81,99.36 635.83,99.36 615.46,18.43 615.46,102.26 624.39,102.26 624.39,117.09 589.83,117.09 589.83,102.26 599.27,102.26 599.27,17.11 589.83,17.11 "/>
   <path class="fil0" d="M325.03 117.09l0 -35.91 14.84 0c0.56,7.03 2.33,12.51 5.37,16.41 3.01,3.91 6.91,5.84 11.69,5.84 3.62,0 6.52,-1.09 8.68,-3.29 2.16,-2.19 3.26,-5.14 3.26,-8.82 0,-2.81 -0.73,-5.48 -2.19,-8.04 -1.46,-2.56 -3.79,-5.28 -7.03,-8.2l-19.95 -17.68c-4.78,-4.19 -8.34,-8.77 -10.73,-13.8 -2.39,-5.03 -3.6,-10.45 -3.6,-16.27 0,-7.84 2.39,-14.36 7.16,-19.53 4.78,-5.14 10.79,-7.73 18.1,-7.73 3.62,0 7.05,0.79 10.28,2.36 3.23,1.57 6.27,3.85 9.13,6.88l0 -7.11 14 0 0 31.25 -14.16 0c-0.82,-5.48 -2.62,-9.81 -5.4,-12.98 -2.76,-3.15 -6.1,-4.72 -9.98,-4.72 -3.06,0 -5.67,1.1 -7.84,3.29 -2.16,2.19 -3.26,4.86 -3.26,7.98 0,2.36 0.67,4.75 2.05,7.14 1.38,2.39 3.4,4.72 6.01,7.02l21.22 19.08c5.37,4.72 9.22,9.47 11.55,14.19 2.33,4.75 3.51,10.12 3.51,16.1 0,8.46 -2.62,15.34 -7.87,20.68 -5.23,5.37 -11.94,8.04 -20.09,8.04 -4.24,0 -8.06,-0.9 -11.52,-2.7 -3.46,-1.82 -6.69,-4.64 -9.72,-8.46l0 8.96 -13.51 0z"/>
   <polygon class="fil0" points="238.71,117.09 238.71,102.26 248.15,102.26 248.15,17.11 238.71,17.11 238.71,2.28 313.57,2.28 313.57,34.65 297.21,34.65 297.21,16.86 268.04,16.86 268.04,48.13 292.66,48.13 292.66,64.66 268.04,64.66 268.04,102.42 297.21,102.42 297.21,81.85 313.57,81.85 313.57,117.09 "/>
   <path class="fil0" d="M229.24 34.37l0 50.64c0,11.27 -2.78,19.84 -8.32,25.65 -5.54,5.82 -13.66,8.71 -24.33,8.71 -10.71,0 -18.86,-2.89 -24.42,-8.71 -5.57,-5.82 -8.34,-14.39 -8.34,-25.65l0 -50.64c0,-11.27 2.78,-19.81 8.34,-25.63 5.56,-5.81 13.71,-8.74 24.42,-8.74 10.68,0 18.8,2.92 24.33,8.74 5.54,5.82 8.32,14.36 8.32,25.63zm-20.06 -1.07c0,-5.93 -1.01,-10.23 -3.01,-12.95 -2,-2.73 -5.2,-4.08 -9.58,-4.08 -4.41,0 -7.61,1.35 -9.67,4.08 -2.02,2.72 -3.03,7.02 -3.03,12.95l0 52.77c0,5.93 1.01,10.23 3.03,12.95 2.05,2.72 5.25,4.07 9.67,4.07 4.38,0 7.59,-1.35 9.58,-4.07 1.99,-2.73 3.01,-7.03 3.01,-12.95l0 -52.77z"/>
   <polygon class="fil0" points="69.77,2.28 108.04,2.28 108.04,17.11 99.11,17.11 99.11,47.97 124.9,47.97 124.9,17.11 115.97,17.11 115.97,2.28 154.24,2.28 154.24,17.11 144.8,17.11 144.8,102.26 154.24,102.26 154.24,117.09 115.97,117.09 115.97,102.26 124.9,102.26 124.9,64.49 99.11,64.49 99.11,102.26 108.04,102.26 108.04,117.09 69.77,117.09 69.77,102.26 79.21,102.26 79.21,17.11 69.77,17.11 "/>
   <path class="fil0" d="M-0 117.09l0 -35.91 14.84 0c0.56,7.03 2.33,12.51 5.37,16.41 3.01,3.91 6.91,5.84 11.69,5.84 3.62,0 6.52,-1.09 8.68,-3.29 2.16,-2.19 3.26,-5.14 3.26,-8.82 0,-2.81 -0.73,-5.48 -2.19,-8.04 -1.46,-2.56 -3.79,-5.28 -7.03,-8.2l-19.95 -17.68c-4.78,-4.19 -8.34,-8.77 -10.73,-13.8 -2.39,-5.03 -3.6,-10.45 -3.6,-16.27 0,-7.84 2.39,-14.36 7.16,-19.53 4.78,-5.14 10.79,-7.73 18.1,-7.73 3.62,0 7.05,0.79 10.28,2.36 3.23,1.57 6.27,3.85 9.13,6.88l0 -7.11 14 0 0 31.25 -14.16 0c-0.82,-5.48 -2.62,-9.81 -5.4,-12.98 -2.76,-3.15 -6.1,-4.72 -9.98,-4.72 -3.06,0 -5.67,1.1 -7.84,3.29 -2.16,2.19 -3.26,4.86 -3.26,7.98 0,2.36 0.67,4.75 2.05,7.14 1.38,2.39 3.4,4.72 6.01,7.02l21.22 19.08c5.37,4.72 9.22,9.47 11.55,14.19 2.33,4.75 3.51,10.12 3.51,16.1 0,8.46 -2.62,15.34 -7.87,20.68 -5.23,5.37 -11.94,8.04 -20.09,8.04 -4.24,0 -8.06,-0.9 -11.52,-2.7 -3.46,-1.82 -6.69,-4.64 -9.72,-8.46l0 8.96 -13.51 0z"/>
   <path class="fil0" d="M422 117.09l0 -8.24 5.25 0 0 -47.3 -5.25 0 0 -8.24 41.59 0 0 18.26 -9.09 0 0 -10.16 -16.2 0 0 17.38 13.11 0 0 9.18 -13.11 0 0 20.89 5.34 0 0 8.24 -21.64 0zm81.96 -45.91l0 28.13c0,6.26 -1.55,11.02 -4.62,14.25 -3.07,3.23 -7.59,4.84 -13.52,4.84 -5.95,0 -10.47,-1.61 -13.56,-4.84 -3.09,-3.23 -4.64,-7.99 -4.64,-14.25l0 -28.13c0,-6.26 1.55,-11.01 4.64,-14.24 3.09,-3.23 7.62,-4.86 13.56,-4.86 5.93,0 10.45,1.62 13.52,4.86 3.07,3.23 4.62,7.98 4.62,14.24zm-11.15 -0.64c0,-3.29 -0.56,-5.68 -1.67,-7.2 -1.11,-1.51 -2.89,-2.26 -5.32,-2.26 -2.45,0 -4.23,0.75 -5.37,2.26 -1.13,1.52 -1.69,3.9 -1.69,7.2l0 29.32c0,3.29 0.56,5.68 1.69,7.2 1.14,1.52 2.92,2.26 5.37,2.26 2.44,0 4.22,-0.75 5.32,-2.26 1.11,-1.51 1.67,-3.9 1.67,-7.2l0 -29.32zm32.71 9.18l6.29 0c2.7,0 4.68,-0.52 5.92,-1.56 1.23,-1.03 1.84,-2.72 1.84,-5.03l0 -5.5c0,-2.36 -0.59,-3.98 -1.78,-4.87 -1.19,-0.91 -3.44,-1.36 -6.76,-1.36l-5.51 0 0 18.31zm-16.3 37.37l0 -8.24 5.25 0 0 -47.3 -5.25 0 0 -8.24 22.59 0c6.87,0 11.66,1.08 14.41,3.25 2.75,2.15 4.12,5.85 4.12,11.08l0 4.22c0,3.87 -0.81,6.71 -2.43,8.52 -1.61,1.83 -4.39,3 -8.34,3.56 4.03,0.52 6.84,1.51 8.41,2.99 1.58,1.47 2.36,3.81 2.36,7.01l0 14.91 5.25 0 0 8.24 -16.02 0 0 -22.7c0,-2.61 -0.58,-4.39 -1.73,-5.32 -1.15,-0.92 -3.4,-1.39 -6.71,-1.39l-5.6 0 0 21.17 4.97 0 0 8.24 -21.26 0z"/>
  </g>
 </g>
</svg>
